<?xml version="1.0" standalone="no"?><!-- Generator: Gravit.io --><svg xmlns="http://www.w3.org/2000/svg" xmlns:xlink="http://www.w3.org/1999/xlink" style="isolation:isolate" viewBox="0 0 512 512" width="512" height="512"><defs><clipPath id="_clipPath_kUqxHg36DOHv6DBmpxXJ9gLxBpDv1988"><rect width="512" height="512"/></clipPath></defs><g clip-path="url(#_clipPath_kUqxHg36DOHv6DBmpxXJ9gLxBpDv1988)"><path d=" M 511.987 255.995 C 511.987 397.379 397.389 512 255.992 512 C 114.627 512 0.013 397.371 0.013 255.995 C 0.013 114.619 114.627 0 255.995 0 C 397.391 0 511.987 114.609 511.987 255.995 Z " fill="rgb(52,73,94)"/><path d=" M 477.665 255.995 C 477.665 378.414 378.419 477.673 255.992 477.673 C 133.586 477.673 34.332 378.414 34.332 255.995 C 34.332 133.576 133.581 34.353 255.995 34.353 C 378.414 34.353 477.665 133.573 477.665 255.995 Z " fill="rgb(255,255,255)"/><path d=" M 255.995 34.353 C 173.128 34.353 100.926 79.86 62.91 147.229 L 255.78 255.676 L 441.477 134.678 C 401.892 74.255 333.642 34.353 255.995 34.353 Z " fill="rgb(128,220,255)"/><g><rect x="249.805" y="56.397" width="12.411" height="42.542" transform="matrix(1,0,0,1,0,0)" fill="rgb(40,58,77)"/><rect x="56.371" y="249.805" width="42.56" height="12.38" transform="matrix(1,0,0,1,0,0)" fill="rgb(40,58,77)"/><rect x="249.805" y="413.056" width="12.411" height="42.578" transform="matrix(1,0,0,1,0,0)" fill="rgb(40,58,77)"/><rect x="413.056" y="249.805" width="42.578" height="12.38" transform="matrix(1,0,0,1,0,0)" fill="rgb(40,58,77)"/><path d=" M 358.223 180.931 L 252.129 250.041 C 248.857 252.209 247.92 256.607 250.071 259.879 C 252.221 263.169 256.619 264.1 259.883 261.95 L 365.985 192.822 L 358.223 180.931 L 358.223 180.931 Z " fill="rgb(40,58,77)"/><path d=" M 259.466 249.825 L 188.93 210.063 L 181.972 222.443 L 252.52 262.184 C 255.938 264.101 260.261 262.888 262.187 259.496 C 264.115 256.061 262.897 251.756 259.466 249.825 Z " fill="rgb(40,58,77)"/></g><g><rect x="145.871" y="317.911" width="188.296" height="5.581" transform="matrix(-0.24,0.971,-0.971,-0.24,608.97,164.707)" fill="rgb(255,112,89)"/><path d=" M 270.892 255.995 C 270.892 264.223 264.221 270.892 256.013 270.892 C 247.798 270.892 241.127 264.221 241.127 255.995 C 241.127 247.798 247.798 241.129 256.013 241.129 C 264.22 241.126 270.892 247.798 270.892 255.995 Z " fill="rgb(255,112,89)"/></g><g><path d=" M 289.83 76.319 L 285.686 75.584 L 288.607 59 L 292.736 59.756 L 289.83 76.319 Z " fill="rgb(40,58,77)"/><path d=" M 320.497 84.9 L 316.57 83.461 L 322.291 67.686 L 326.272 69.12 L 320.497 84.9 Z " fill="rgb(40,58,77)"/><path d=" M 349.243 98.714 L 345.618 96.594 L 353.984 82.045 L 357.629 84.165 L 349.243 98.714 Z " fill="rgb(40,58,77)"/><path d=" M 375.124 117.286 L 371.945 114.578 L 382.72 101.74 L 385.93 104.404 L 375.124 117.286 Z " fill="rgb(40,58,77)"/><rect x="394.135" y="130.949" width="16.796" height="4.214" transform="matrix(-0.765,0.645,-0.645,-0.765,796.044,-24.697)" fill="rgb(40,58,77)"/><rect x="413.26" y="158.298" width="16.804" height="4.201" transform="matrix(-0.866,0.499,-0.499,-0.866,867.083,88.791)" fill="rgb(40,58,77)"/><rect x="427.362" y="188.467" width="16.778" height="4.214" transform="matrix(-0.939,0.344,-0.344,-0.939,910.452,219.819)" fill="rgb(40,58,77)"/><path d=" M 436.434 226.296 L 435.717 222.2 L 452.244 219.259 L 452.974 223.406 L 436.434 226.296 Z " fill="rgb(40,58,77)"/><path d=" M 435.717 289.83 L 436.442 285.647 L 452.948 288.589 L 452.244 292.741 L 435.717 289.83 Z " fill="rgb(40,58,77)"/><path d=" M 427.113 320.489 L 428.557 316.575 L 444.314 322.278 L 442.88 326.254 L 427.113 320.489 Z " fill="rgb(40,58,77)"/><rect x="419.552" y="343.194" width="4.191" height="16.796" transform="matrix(-0.501,0.865,-0.865,-0.501,937.224,162.954)" fill="rgb(40,58,77)"/><path d=" M 394.714 375.112 L 397.427 371.914 L 410.291 382.702 L 407.578 385.943 L 394.714 375.112 Z " fill="rgb(40,58,77)"/><rect x="376.844" y="394.085" width="4.183" height="16.784" transform="matrix(-0.766,0.643,-0.643,-0.766,927.941,467.078)" fill="rgb(40,58,77)"/><path d=" M 345.618 415.393 L 349.261 413.292 L 357.655 427.84 L 353.984 429.972 L 345.618 415.393 Z " fill="rgb(40,58,77)"/><path d=" M 316.582 428.539 L 320.509 427.087 L 326.272 442.88 L 322.309 444.332 L 316.582 428.539 Z " fill="rgb(40,58,77)"/><path d=" M 285.696 436.398 L 289.83 435.717 L 292.736 452.262 L 288.607 452.961 L 285.696 436.398 Z " fill="rgb(40,58,77)"/><rect x="214.373" y="442.319" width="16.8" height="4.196" transform="matrix(-0.175,0.985,-0.985,-0.175,699.347,302.954)" fill="rgb(40,58,77)"/><path d=" M 191.511 427.105 L 195.448 428.539 L 189.709 444.332 L 185.728 442.86 L 191.511 427.105 Z " fill="rgb(40,58,77)"/><path d=" M 162.77 413.292 L 166.4 415.406 L 158.016 429.972 L 154.371 427.84 L 162.77 413.292 Z " fill="rgb(40,58,77)"/><rect x="124.701" y="400.37" width="16.78" height="4.196" transform="matrix(-0.645,0.764,-0.764,-0.645,526.394,560.602)" fill="rgb(40,58,77)"/><path d=" M 114.604 371.932 L 117.286 375.148 L 104.44 385.943 L 101.722 382.684 L 114.604 371.932 Z " fill="rgb(40,58,77)"/><path d=" M 96.612 345.6 L 98.696 349.243 L 84.165 357.66 L 82.076 354.002 L 96.612 345.6 Z " fill="rgb(40,58,77)"/><path d=" M 83.474 316.575 L 84.887 320.509 L 69.146 326.254 L 67.712 322.278 L 83.474 316.575 Z " fill="rgb(40,58,77)"/><rect x="59.237" y="287.105" width="16.788" height="4.196" transform="matrix(-0.984,0.177,-0.177,-0.984,185.356,561.88)" fill="rgb(40,58,77)"/><path d=" M 76.314 222.2 L 75.571 226.296 L 59.026 223.406 L 59.799 219.259 L 76.314 222.2 Z " fill="rgb(40,58,77)"/><path d=" M 84.887 191.491 L 83.474 195.43 L 67.694 189.704 L 69.151 185.746 L 84.887 191.491 Z " fill="rgb(40,58,77)"/><rect x="88.306" y="152.009" width="4.201" height="16.804" transform="matrix(-0.499,0.866,-0.866,-0.499,274.531,162.192)" fill="rgb(40,58,77)"/><path d=" M 117.286 136.863 L 114.578 140.05 L 101.709 129.28 L 104.458 126.065 L 117.286 136.863 Z " fill="rgb(40,58,77)"/><path d=" M 140.086 114.578 L 136.876 117.286 L 126.07 104.404 L 129.298 101.74 L 140.086 114.578 Z " fill="rgb(40,58,77)"/><path d=" M 166.4 96.594 L 162.757 98.678 L 154.353 84.165 L 158.029 82.045 L 166.4 96.594 Z " fill="rgb(40,58,77)"/><path d=" M 195.418 83.448 L 191.503 84.864 L 185.728 69.11 L 189.727 67.686 L 195.418 83.448 Z " fill="rgb(40,58,77)"/><path d=" M 226.335 75.584 L 222.18 76.27 L 219.259 59.756 L 223.411 59 L 226.335 75.584 Z " fill="rgb(40,58,77)"/></g><path d=" M 441.482 134.653 L 432.537 140.472 C 394.744 83.013 329.751 44.974 256 44.974 C 177.285 44.974 108.495 88.343 72.233 152.417 L 62.922 147.21 C 74.806 126.139 89.997 107.271 107.822 91.161 C 109.599 89.569 111.437 87.976 113.275 86.445 C 116.951 83.383 120.686 80.38 124.608 77.503 C 126.323 76.277 128.038 74.992 129.754 73.827 C 133.43 71.254 137.227 68.804 141.087 66.477 C 142.313 65.681 143.598 64.946 144.886 64.211 C 155.054 58.269 165.773 53.124 176.922 48.897 C 178.637 48.224 180.414 47.612 182.129 46.997 C 184.333 46.201 186.601 45.466 188.805 44.793 C 197.87 41.852 207.242 39.525 216.799 37.871 C 218.207 37.564 219.618 37.382 221.026 37.136 C 232.421 35.298 244.12 34.379 256.003 34.379 C 258.391 34.379 260.719 34.44 263.048 34.502 C 275.912 34.871 288.464 36.402 300.66 38.913 C 302.498 39.282 304.275 39.648 306.051 40.078 C 308.562 40.628 311.074 41.243 313.524 41.916 C 315.301 42.405 317.077 42.896 318.854 43.447 C 327.061 45.835 335.087 48.715 342.933 52.084 C 344.28 52.634 345.621 53.249 346.97 53.861 C 348.255 54.411 349.609 55.026 350.897 55.699 C 352.919 56.618 354.939 57.599 356.895 58.64 C 359.161 59.743 361.311 60.906 363.51 62.132 C 365.169 63.112 366.818 64.032 368.479 65.012 C 372.516 67.4 376.505 69.912 380.357 72.546 C 382.195 73.772 384.038 75.057 385.871 76.404 C 387.709 77.751 389.486 79.1 391.324 80.446 C 393.101 81.793 394.816 83.203 396.592 84.673 C 398.307 86.081 400.022 87.492 401.738 89.022 C 403.392 90.491 405.107 91.963 406.761 93.494 C 408.415 95.025 410.002 96.617 411.599 98.151 C 422.799 109.23 432.845 121.421 441.482 134.653 Z " fill="rgb(115,201,237)"/><path d=" M 441.459 134.664 L 432.54 140.47 C 454.285 173.671 467.026 213.363 467.026 255.998 C 467.026 372.322 372.324 467.024 256 467.024 C 139.676 467.024 44.974 372.324 44.974 256 C 44.974 218.388 54.897 182.984 72.233 152.417 L 62.922 147.21 C 67.21 139.602 71.951 132.301 77.079 125.299 C 50.23 161.93 34.322 207.068 34.322 256 C 34.322 378.388 133.617 477.686 256.008 477.686 C 378.399 477.686 477.693 378.391 477.693 256 C 477.686 211.185 464.33 169.526 441.459 134.664 Z " fill="rgb(230,233,235)"/></g></svg>